<svg xmlns="http://www.w3.org/2000/svg" viewBox="0 0 255.86 255.84"><defs><style>.cls-1{fill:#fec95c;}.cls-2{fill:#432e17;}</style></defs><g id="Layer_2" data-name="Layer 2"><g id="Layer_1-2" data-name="Layer 1"><ellipse class="cls-1" cx="127.93" cy="127.92" rx="127.93" ry="127.92"/><path class="cls-2" d="M121.08,199.84A47.81,47.81,0,0,1,95.38,188C77,171.8,69.64,150.81,69.75,127c.1-22.54,7.2-42.46,23.93-58.27a51.86,51.86,0,0,1,21.57-12c2-.57,4-1,5.63.64,1.74,1.83-.1,3.37-.85,4.91-7.78,15.93-7.42,32.47-3.63,49.22,2.39,10.61,6.86,20.43,11.6,30.17,7.47,15.33,9.83,31.32,4.89,47.92C130.69,196.88,127.17,199.88,121.08,199.84Z"/><path class="cls-2" d="M186.1,128.17c-.67,25.59-9.29,47.41-30.11,63.45a22.76,22.76,0,0,1-3.25,2.3c-3.29,1.7-5.27.43-4.82-3.3.38-3.11,1.61-6.1,2-9.21,2.29-17.43-1.82-33.65-9.62-49.14-6.89-13.66-11.74-27.88-11.35-43.44a50.8,50.8,0,0,1,6.19-23.4c3.93-7.16,8.54-8.67,15.67-4.69,17,9.46,26.69,24.52,32,42.76A83.75,83.75,0,0,1,186.1,128.17Z"/></g></g></svg>